<svg width="83" height="92" viewBox="0 0 83 92" fill="none" xmlns="http://www.w3.org/2000/svg">
<path d="M4.25951 33.8196C-4.27913 47.3165 1.14905 67.7987 10.5914 80.2178C15.3046 86.4268 20.0764 92.0001 26.6123 92.0001C26.7355 92.0001 26.859 91.998 26.9855 91.9935C30.0562 91.8819 32.2753 91.0207 34.4208 90.1885C36.8295 89.2534 39.3208 88.2867 43.2283 88.2867C46.9458 88.2867 49.3181 89.222 51.6123 90.1264C53.8734 91.0174 56.2023 91.9392 59.6436 91.8804C67.0057 91.7555 71.5258 85.7414 75.5139 80.4359C79.6754 74.8963 81.7629 69.5178 82.4673 67.4624L82.4958 67.3806C82.6299 67.0154 82.4405 66.6166 82.056 66.4558C82.0454 66.4513 82.0063 66.4365 81.9954 66.4323C80.699 65.9494 69.3267 61.3539 69.2072 48.8286C69.0962 38.6525 77.7385 33.2637 79.4717 32.287L79.5525 32.2412C79.7403 32.1311 79.8711 31.9564 79.9155 31.7567C79.9598 31.5573 79.9135 31.3498 79.7876 31.1821C73.8224 23.2303 64.6794 22.0319 60.9983 21.8877C60.4642 21.8391 59.9128 21.8147 59.3592 21.8147C55.0357 21.8147 50.894 23.3021 47.5667 24.4972C45.2698 25.3222 43.2859 26.0346 41.9176 26.0346C40.3801 26.0346 38.3849 25.3134 36.0745 24.4785C32.9849 23.3615 29.483 22.0958 25.7758 22.0958C25.6874 22.0958 25.6003 22.0967 25.5146 22.0982C16.8948 22.2138 8.74988 26.7058 4.25951 33.8196Z" fill="#3BB7FD"/>
<path d="M61.0058 0.00057958C55.786 0.194232 49.5243 3.12104 45.7817 7.11414C42.601 10.4705 39.4939 16.0665 40.3124 21.7071C40.3638 22.0601 40.679 22.3324 41.0688 22.3599C41.4211 22.3849 41.7808 22.3976 42.1391 22.3979C47.243 22.3979 52.749 19.8258 56.5092 15.6843C60.4667 11.3112 62.4679 5.69885 61.8625 0.671727C61.8148 0.277786 61.4344 -0.014804 61.0058 0.00057958Z" fill="#3BB7FD"/>
</svg>
