<svg width="135" height="135" viewBox="0 0 135 135" fill="none" xmlns="http://www.w3.org/2000/svg">
<rect width="135" height="135" fill="#E5E5E5"/>
<rect x="-377" y="-1726" width="1980" height="7419" fill="white"/>
<rect x="-380" y="-547" width="1980" height="914" fill="white"/>
<path d="M67.5 135C104.779 135 135 104.779 135 67.5C135 30.2208 104.779 0 67.5 0C30.2208 0 0 30.2208 0 67.5C0 104.779 30.2208 135 67.5 135Z" fill="#FCC841"/>
<path d="M82.4272 102.041C80.982 102.041 79.7432 100.69 79.7432 99.2453V62.3473C79.7432 60.9016 78.6166 59.8535 77.1714 59.8535H57.8289C56.3832 59.8535 55.222 60.9016 55.222 62.3473V99.2453C55.222 100.69 54.0181 102.041 52.5726 102.041H46.1683C44.7231 102.041 44.4186 102.749 45.492 103.717L65.5482 121.758C66.6219 122.726 68.3782 122.705 69.4519 121.737L89.5075 103.727C90.5809 102.76 90.2767 102.041 88.8312 102.041L82.4272 102.041Z" fill="#45B39C"/>
<path opacity="0.3" d="M77.1715 59.8535H57.8291C56.3834 59.8535 55.2222 60.9016 55.2222 62.3473V73.9705L79.7437 73.9457V62.3473C79.7437 60.9016 78.617 59.8535 77.1715 59.8535Z" fill="#45B39C"/>
<path opacity="0.3" d="M55.0151 79.7864L77.1775 114.744L69.4519 121.737C68.3783 122.705 66.622 122.726 65.5483 121.758L45.4921 103.717C44.4187 102.749 44.723 102.041 46.1684 102.041H52.5727C54.0179 102.041 55.0143 100.787 55.0143 99.3416L55.0151 79.7864Z" fill="#45B39C"/>
<path d="M102.683 33.7698C102.683 33.7645 102.683 33.7593 102.683 33.7537C102.683 18.7015 90.3894 6.49927 75.3374 6.49927C64.9732 6.49927 55.9148 12.2845 51.3063 20.8016C50.2545 20.6273 49.1527 20.5353 48.0513 20.5353C38.4563 20.5353 30.4581 27.414 28.7376 36.5093C20.7449 37.7468 14.6206 44.6212 14.6206 52.9604C14.6206 62.1749 22.0859 69.6097 31.301 69.6097C31.3089 69.6097 31.3163 69.6097 31.324 69.6097L31.3002 69.708L95.5051 69.6627C105.797 69.6627 114.231 61.3283 114.231 51.0369C114.23 43.2198 109.011 36.536 102.683 33.7698Z" fill="#E3E8E8"/>
<path d="M108.22 48.5531C108.22 48.5499 108.22 48.5465 108.22 48.5438C108.22 39.6671 101.041 32.4709 92.1647 32.4709C86.0522 32.4709 80.7464 35.8829 78.0284 40.9053C77.408 40.8027 76.7763 40.7484 76.126 40.7484C70.4682 40.7484 65.7601 44.805 64.7457 50.1686C60.0323 50.8982 56.4255 54.9128 56.4255 59.8309C56.4255 65.2649 60.8326 69.6096 66.2663 69.6096C66.271 69.6096 66.275 69.6096 66.28 69.6096L66.2658 69.7069L104.129 69.6998C110.197 69.6998 115.1 64.7945 115.1 58.7255C115.101 54.1155 112.175 50.1842 108.22 48.5531Z" fill="#F5FAFA"/>
</svg>
