<svg width="130" height="130" viewBox="0 0 130 130" fill="none" xmlns="http://www.w3.org/2000/svg">
<rect width="130" height="130" fill="#E5E5E5"/>
<rect x="-1466" y="-1732" width="1980" height="7419" fill="white"/>
<rect x="-1469" y="-553" width="1980" height="914" fill="white"/>
<path d="M64.5996 129.199C100.277 129.199 129.199 100.277 129.199 64.5996C129.199 28.9222 100.277 0 64.5996 0C28.9222 0 0 28.9222 0 64.5996C0 100.277 28.9222 129.199 64.5996 129.199Z" fill="#FCC841"/>
<path d="M83.6267 20H36.3816C35.0663 20 34 20.9825 34 22.889V102.5C34 103.018 35.0663 104 36.3816 104H101.618C102.934 104 104 103.018 104 102.5V39.467C104 38.423 103.849 38.087 103.582 37.8395L84.6393 20.3855C84.3707 20.1395 84.006 20 83.6267 20Z" fill="#E9E9E0"/>
<path d="M84.4651 20.2266V38.0001H103.754L84.4651 20.2266Z" fill="#D9D7CA"/>
<path d="M101.618 104H36.3816C35.0663 104 34 103.017 34 101.805V78.5H104V101.805C104 103.017 102.934 104 101.618 104Z" fill="#F36FA0"/>
<path d="M58.549 97.9625C57.9402 98.5085 57.2499 98.9195 56.4799 99.1925C55.7083 99.467 54.8781 99.602 53.9876 99.602C53.0076 99.602 52.1074 99.4385 51.2836 99.11C50.4599 98.7815 49.7404 98.297 49.125 97.6535C48.5097 97.01 48.0262 96.2045 47.6778 95.234C47.3295 94.2635 47.1553 93.1415 47.1553 91.871C47.1553 90.6005 47.3295 89.4815 47.6778 88.5185C48.0262 87.554 48.5081 86.7515 49.125 86.1095C49.7404 85.466 50.4632 84.9785 51.295 84.6425C52.1253 84.3065 53.0239 84.14 53.9876 84.14C54.8781 84.14 55.7083 84.2765 56.4799 84.5495C57.2516 84.824 57.9402 85.2335 58.549 85.7795L56.7013 87.2975C56.3302 86.9 55.9183 86.6135 55.4657 86.4365C55.0132 86.2595 54.5427 86.1695 54.0527 86.1695C53.5041 86.1695 52.9799 86.264 52.4834 86.456C51.9853 86.648 51.5409 86.972 51.1485 87.4295C50.7546 87.8885 50.4469 88.478 50.2255 89.204C50.0041 89.93 49.8836 90.8165 49.869 91.8695C49.8836 92.8955 49.9992 93.77 50.2141 94.4945C50.429 95.219 50.7253 95.81 51.1046 96.269C51.4839 96.728 51.9136 97.061 52.3955 97.274C52.8774 97.487 53.3853 97.592 53.9209 97.592C54.4564 97.592 54.9562 97.502 55.4234 97.325C55.8906 97.148 56.3171 96.86 56.7029 96.464L58.549 97.9625Z" fill="white"/>
<path d="M71.6585 95.357C71.6585 95.903 71.5364 96.434 71.2906 96.947C71.0448 97.46 70.7013 97.9115 70.2553 98.3C69.8092 98.6885 69.2606 99.0005 68.6078 99.233C67.955 99.4655 67.2127 99.581 66.3825 99.581C66.026 99.581 65.6597 99.563 65.2804 99.53C64.9011 99.497 64.5201 99.437 64.1343 99.356C63.7485 99.2735 63.3806 99.161 63.0322 99.017C62.6839 98.873 62.3827 98.699 62.1304 98.4935L62.5976 96.7295C62.8043 96.839 63.068 96.9455 63.3871 97.0475C63.7062 97.1495 64.035 97.2455 64.3769 97.334C64.7171 97.424 65.059 97.4945 65.4008 97.55C65.7411 97.604 66.0601 97.6325 66.358 97.6325C67.2632 97.6325 67.9566 97.4375 68.4385 97.0475C68.9204 96.6575 69.1613 96.08 69.1613 95.315C69.1613 94.85 68.9904 94.454 68.6501 94.1255C68.3083 93.797 67.8818 93.5 67.3706 93.233C66.8594 92.966 66.306 92.7005 65.7118 92.4335C65.1176 92.1665 64.5608 91.8515 64.0432 91.49C63.5239 91.1285 63.0941 90.701 62.7522 90.209C62.4104 89.717 62.2411 89.102 62.2411 88.364C62.2411 87.695 62.3746 87.0995 62.6415 86.5805C62.9085 86.0615 63.2683 85.619 63.7208 85.2575C64.1734 84.896 64.7008 84.6185 65.3015 84.4265C65.9022 84.2345 66.5371 84.14 67.2046 84.14C67.8866 84.14 68.5769 84.1985 69.2736 84.314C69.9704 84.4295 70.5336 84.6185 70.965 84.878C70.8755 85.055 70.7713 85.25 70.6541 85.463C70.5353 85.676 70.4229 85.8725 70.3204 86.057C70.2162 86.2415 70.1266 86.396 70.0534 86.519C69.9785 86.642 69.9346 86.711 69.9199 86.7245C69.8304 86.684 69.7311 86.63 69.6187 86.561C69.5064 86.492 69.3469 86.4245 69.1401 86.3555C68.9318 86.2865 68.6583 86.24 68.3164 86.2115C67.9746 86.183 67.5367 86.1905 67.0027 86.2325C66.7048 86.261 66.4248 86.3375 66.1562 86.468C65.8876 86.5985 65.6515 86.7575 65.4432 86.9495C65.2348 87.1415 65.072 87.356 64.9532 87.596C64.8343 87.8345 64.7757 88.0655 64.7757 88.283C64.7757 88.829 64.945 89.27 65.2869 89.606C65.6271 89.942 66.0504 90.2345 66.555 90.488C67.0597 90.7415 67.6083 90.9875 68.2025 91.226C68.795 91.4645 69.3485 91.757 69.8613 92.0975C70.3741 92.438 70.799 92.867 71.1408 93.3785C71.4876 93.8915 71.6585 94.55 71.6585 95.357Z" fill="white"/>
<path d="M78.8245 99.5826L73.7275 84.3861H76.7766L80.5827 97.4286L84.6117 84.3861H87.638L82.2968 99.5826H78.8245Z" fill="white"/>
<path d="M61.6745 44V38H42.1396V44V47V50V53V56V59V62V65V71H58.4187H61.6745H95.8606V65V62V59V56V53V50V44H61.6745ZM45.3955 41H58.4187V44H45.3955V41ZM45.3955 47H58.4187V50H45.3955V47ZM45.3955 53H58.4187V56H45.3955V53ZM45.3955 59H58.4187V62H45.3955V59ZM58.4187 68H45.3955V65H58.4187V68ZM92.6048 68H61.6745V65H92.6048V68ZM92.6048 62H61.6745V59H92.6048V62ZM92.6048 56H61.6745V53H92.6048V56ZM61.6745 50V47H92.6048V50H61.6745Z" fill="#C8BDB8"/>
</svg>
