<svg width="135" height="135" viewBox="0 0 135 135" fill="none" xmlns="http://www.w3.org/2000/svg">
<rect width="135" height="135" fill="#E5E5E5"/>
<rect x="-1453" y="-1371" width="1980" height="7419" fill="white"/>
<rect x="-1456" y="-192" width="1980" height="914" fill="white"/>
<path d="M67.5 135C104.779 135 135 104.779 135 67.5C135 30.2208 104.779 0 67.5 0C30.2208 0 0 30.2208 0 67.5C0 104.779 30.2208 135 67.5 135Z" fill="#90DFAA"/>
<path d="M49.2055 100.714L20.1965 90.5893L40.0983 48.0803L56.6251 51.0803L49.2055 100.714Z" fill="white"/>
<path d="M49.2053 100.714L79.8482 90.5357L74.0625 48.0803L56.625 51.0803L49.2053 100.714Z" fill="#E6E9EE"/>
<path d="M116.464 100.714L79.8482 90.5357L74.0625 48.0803L92.3839 51.0803L116.464 100.714Z" fill="white"/>
<path d="M87.3215 55.5536L74.759 53.25L78.8305 83.1696L102.322 89.4643L87.3215 55.5536Z" fill="#84DBFF"/>
<path d="M42.8305 53.9197L28.0984 86.1697L50.143 93L55.768 56.25L42.8305 53.9197Z" fill="#84DBFF"/>
<path d="M74.7589 53.25L55.7678 56.25L50.1428 93L78.8303 83.1696L74.7589 53.25Z" fill="#54C0EB"/>
<path d="M88.8751 37.4732C88.8751 49.5267 67.0447 75.8571 67.0447 75.8571C67.0447 75.8571 45.2144 49.5267 45.2144 37.4732C45.2144 25.4196 54.9911 15.6428 67.0447 15.6428C79.0983 15.6428 88.8751 25.3928 88.8751 37.4732Z" fill="#F1543F"/>
<path d="M67.0178 46.7411C73.1275 46.7411 78.0803 41.7882 78.0803 35.6786C78.0803 29.5689 73.1275 24.6161 67.0178 24.6161C60.9082 24.6161 55.9553 29.5689 55.9553 35.6786C55.9553 41.7882 60.9082 46.7411 67.0178 46.7411Z" fill="white"/>
</svg>
