<svg width="135" height="135" viewBox="0 0 135 135" fill="none" xmlns="http://www.w3.org/2000/svg">
<rect width="135" height="135" fill="#E5E5E5"/>
<rect x="-377" y="-1371" width="1980" height="7419" fill="white"/>
<rect x="-380" y="-192" width="1980" height="914" fill="white"/>
<path d="M67.5 135C104.779 135 135 104.779 135 67.5C135 30.2208 104.779 0 67.5 0C30.2208 0 0 30.2208 0 67.5C0 104.779 30.2208 135 67.5 135Z" fill="#90DFAA"/>
<path d="M102.233 33.2716H101.436V92.2677H102.233V33.2716Z" fill="white"/>
<path d="M84.8268 97.5826L68.9882 89.5039L79.5118 83.9763C80.0433 83.6574 80.2559 83.0196 79.937 82.5944C79.7244 82.2755 79.4055 82.0629 79.0866 82.0629L68.4567 73.9842L76.1102 68.244C76.4291 68.0314 76.5354 67.6062 76.4291 67.2873C76.3228 66.9684 76.0039 66.6495 75.5787 66.6495H58.4646C58.0394 66.6495 57.7205 66.8621 57.6142 67.2873C57.5079 67.6062 57.6142 68.0314 57.9331 68.244L65.5866 73.9842L54.7441 82.2755L54.5315 82.1692C54 81.8503 53.3622 82.0629 53.1496 82.5944C52.937 83.1259 53.0433 83.7637 53.5748 83.9763L64.5236 89.6102L49.2165 97.6889C48.7913 97.9015 48.5787 98.433 48.685 98.8582C48.7913 99.2834 49.2165 99.7086 49.748 99.7086H84.5079C85.0394 99.7086 85.4646 99.3897 85.5709 98.8582C85.4646 98.3267 85.252 97.9015 84.8268 97.5826ZM61.0158 68.3503H72.9213L66.9685 72.8149L61.0158 68.3503ZM66.9685 75.0472L76.4291 82.1692H57.6142L66.9685 75.0472ZM58.0394 83.87H75.1535L66.7559 88.3346L58.0394 83.87ZM53.8937 97.4763L66.7559 90.6732L80.0433 97.4763H53.8937Z" fill="#2B3B4E"/>
<path d="M44.3267 118.63C44.1141 118.63 43.9015 118.63 43.6889 118.524C42.6259 118.205 41.9881 117.035 42.307 115.866L64.9487 42.4134C65.2676 41.563 66.0117 40.9252 66.9684 40.9252C67.9251 40.9252 68.6692 41.563 68.9881 42.4134L91.6298 115.866C91.9487 116.929 91.3109 118.205 90.2479 118.524C89.185 118.842 87.9094 118.205 87.5905 117.142L66.9684 50.1732L46.3464 117.142C46.0275 118.098 45.2834 118.63 44.3267 118.63Z" fill="#324A5E"/>
<path d="M17.0078 112.358C29.3385 126.283 47.4094 135 67.4999 135C87.5905 135 105.555 126.177 117.992 112.358H17.0078Z" fill="#2C9984"/>
<path d="M105.9 28.6568L26.1155 44.8922L28.023 54.2663L107.808 38.0309L105.9 28.6568Z" fill="#E6E9EE"/>
<path d="M44.4329 80.0433C36.2478 70.689 33.0589 57.5079 36.9919 44.8583C37.3108 43.689 37.736 42.626 38.2675 41.4567C39.2242 39.2244 38.0549 36.6732 35.8226 36.0354L27.7439 33.4843C25.8305 32.8465 23.7045 33.8031 22.8541 35.6102C21.8974 37.6299 21.1533 39.6496 20.6218 41.8819C16.2636 58.8898 24.8738 76.8543 40.925 84.1889C41.0313 84.1889 41.1376 84.2953 41.2439 84.2953C43.9014 85.5708 46.3463 82.2756 44.4329 80.0433Z" fill="white"/>
<path d="M107.468 92.4803H96.0942V112.358H107.468V92.4803Z" fill="#2B3B4E"/>
<path d="M108.851 94.2875H94.8191C92.9057 94.2875 91.4175 92.7993 91.4175 90.8859V88.9725C91.4175 87.0591 92.9057 85.5709 94.8191 85.5709H108.851C110.764 85.5709 112.252 87.0591 112.252 88.9725V90.8859C112.146 92.693 110.658 94.2875 108.851 94.2875Z" fill="#324A5E"/>
</svg>
