<svg width="135" height="135" viewBox="0 0 135 135" fill="none" xmlns="http://www.w3.org/2000/svg">
<rect width="135" height="135" fill="#E5E5E5"/>
<rect x="-740" y="-1726" width="1980" height="7419" fill="white"/>
<rect x="-743" y="-547" width="1980" height="914" fill="white"/>
<path d="M0 67.5C0 30.2079 30.2079 0 67.5 0C104.765 0 135 30.2079 135 67.5C135 104.792 104.765 135 67.5 135C30.2079 135 0 104.792 0 67.5Z" fill="#84DBFF"/>
<path d="M52.1287 74.9852H56.2723C59.4802 74.9852 61.2981 71.3228 59.3733 68.7565L43.1198 47.3169C41.5693 45.2585 38.4684 45.2585 36.9179 47.3169L20.6644 68.7565C18.7129 71.3228 20.5575 74.9852 23.7654 74.9852H27.508C33.3357 101.852 58.9456 113.079 78.1129 106.931C79.7971 106.396 79.4763 103.91 77.6852 103.776C60.0149 102.493 50.2575 87.0951 52.1287 74.9852Z" fill="#FF7058"/>
<path d="M82.8711 60.0149H78.7276C75.5197 60.0149 73.7018 63.6772 75.6266 66.2436L91.8801 87.7099C93.4306 89.7683 96.5315 89.7683 98.082 87.7099L114.336 66.2436C116.287 63.6772 114.442 60.0149 111.235 60.0149H107.492C101.637 33.1485 76.0276 21.9208 56.8602 28.0693C55.1761 28.604 55.4969 31.0901 57.288 31.2238C74.985 32.507 84.7424 47.905 82.8711 60.0149Z" fill="#324A5E"/>
</svg>
