<svg width="135" height="135" viewBox="0 0 135 135" fill="none" xmlns="http://www.w3.org/2000/svg">
<rect width="135" height="135" fill="#E5E5E5"/>
<rect x="-740" y="-1370" width="1980" height="7419" fill="white"/>
<rect x="-743" y="-191" width="1980" height="914" fill="white"/>
<path d="M135 67.5C135 104.78 104.78 135 67.5 135C30.2203 135 0 104.78 0 67.5C0 30.2203 30.2203 0 67.5 0C104.78 0 135 30.2203 135 67.5Z" fill="#80DBFF"/>
<path d="M134.894 71.2624L90.4508 26.8203L19.9299 92.3685L62.3687 134.807C64.063 134.934 65.7738 135 67.5 135C103.516 135 132.941 106.791 134.894 71.2624Z" fill="#4AB8F7"/>
<path d="M120.315 78.807C120.315 89.9389 111.29 98.9624 100.158 98.9624C89.0263 98.9624 80.0017 89.9389 80.0017 78.807C80.0017 67.6741 89.0263 58.6505 100.158 58.6505C111.29 58.6505 120.315 67.6741 120.315 78.807Z" fill="#DCE1EB"/>
<path d="M108.914 74.5904C108.914 79.425 104.994 83.3451 100.158 83.3451C95.3226 83.3451 91.4026 79.425 91.4026 74.5904C91.4026 69.7547 95.3226 65.8346 100.158 65.8346C104.994 65.8346 108.914 69.7547 108.914 74.5904Z" fill="#E09380"/>
<path d="M86.2361 93.3821C89.8544 96.8397 94.7591 98.9625 100.158 98.9625C105.558 98.9625 110.462 96.8397 114.08 93.3821C111.864 87.8656 106.468 83.9672 100.158 83.9672C93.8486 83.9672 88.4536 87.8646 86.2361 93.3821Z" fill="#DE4726"/>
<path d="M54.9983 78.807C54.9983 89.9389 45.9737 98.9624 34.8418 98.9624C23.7099 98.9624 14.6853 89.9389 14.6853 78.807C14.6853 67.6741 23.7099 58.6505 34.8418 58.6505C45.9737 58.6505 54.9983 67.6741 54.9983 78.807Z" fill="white"/>
<path d="M43.5975 74.5904C43.5975 79.425 39.6774 83.3451 34.8417 83.3451C30.006 83.3451 26.0859 79.425 26.0859 74.5904C26.0859 69.7547 30.006 65.8346 34.8417 65.8346C39.6774 65.8346 43.5975 69.7547 43.5975 74.5904Z" fill="#FFBEAA"/>
<path d="M20.9197 93.3821C24.538 96.8397 29.4416 98.9625 34.8418 98.9625C40.2419 98.9625 45.1456 96.8397 48.7638 93.3821C46.5463 87.8656 41.1513 83.9672 34.8418 83.9672C28.5322 83.9672 23.1362 87.8646 20.9197 93.3821Z" fill="#FF7045"/>
<path d="M98.2023 47.2106C98.2023 64.167 84.4563 77.9119 67.4999 77.9119C50.5436 77.9119 36.7976 64.167 36.7976 47.2106C36.7976 30.2543 50.5436 16.5083 67.4999 16.5083C84.4563 16.5083 98.2023 30.2543 98.2023 47.2106Z" fill="#4A7AFF"/>
<path d="M67.4999 16.5083C67.4639 16.5083 67.4289 16.5093 67.3928 16.5093V77.9109C67.4289 77.9109 67.4639 77.9119 67.4999 77.9119C84.4563 77.9119 98.2023 64.166 98.2023 47.2096C98.2023 30.2543 84.4563 16.5083 67.4999 16.5083Z" fill="#0053BF"/>
<path d="M80.8361 40.7867C80.8361 48.153 74.8654 54.1238 67.5001 54.1238C60.1348 54.1238 54.1641 48.153 54.1641 40.7867C54.1641 33.4214 60.1348 27.4507 67.5001 27.4507C74.8654 27.4507 80.8361 33.4214 80.8361 40.7867Z" fill="#FFBEAA"/>
<path d="M67.4999 27.4507C67.4639 27.4507 67.4289 27.4527 67.3928 27.4527V54.1207C67.4289 54.1207 67.4639 54.1238 67.4999 54.1238C74.8652 54.1238 80.836 48.152 80.836 40.7867C80.836 33.4214 74.8652 27.4507 67.4999 27.4507Z" fill="#E09380"/>
<path d="M46.2939 69.4117C51.8053 74.6779 59.2746 77.912 67.5 77.912C75.7253 77.912 83.1946 74.6779 88.706 69.4106C85.3287 61.0081 77.1116 55.0714 67.5 55.0714C57.8893 55.0714 49.6712 61.0081 46.2939 69.4117Z" fill="#FFCE00"/>
<path d="M88.706 69.4117C85.3287 61.0081 77.1116 55.0714 67.4999 55.0714C67.4639 55.0714 67.4289 55.0735 67.3928 55.0735V77.911C67.4289 77.911 67.4639 77.912 67.4999 77.912C75.7253 77.912 83.1946 74.6779 88.706 69.4117Z" fill="#FFB600"/>
</svg>
