<svg width="131" height="130" viewBox="0 0 131 130" fill="none" xmlns="http://www.w3.org/2000/svg">
<rect width="131" height="130" fill="#E5E5E5"/>
<rect x="-1090" y="-1731" width="1980" height="7419" fill="white"/>
<rect x="-1093" y="-552" width="1980" height="914" fill="white"/>
<path d="M65.5 130C101.177 130 130.1 101.078 130.1 65.4004C130.1 29.723 101.177 0.800781 65.5 0.800781C29.8226 0.800781 0.900391 29.723 0.900391 65.4004C0.900391 101.078 29.8226 130 65.5 130Z" fill="#F24976"/>
<path d="M53.6479 54.3455V41.468C53.6479 34.9327 58.9649 29.6157 65.5 29.6157C72.0354 29.6157 77.3523 34.9327 77.3523 41.468V54.3455H87.8992V41.468C87.8992 29.1171 77.8509 19.0688 65.5 19.0688C53.1491 19.0688 43.1011 29.1171 43.1011 41.468V54.3455H53.6479Z" fill="#B5CAFF"/>
<path d="M48.3331 54.3454V41.4679C48.3331 30.0024 56.9942 20.5269 68.1161 19.2264C67.2571 19.126 66.3851 19.0685 65.5 19.0685C53.1491 19.0685 43.1011 29.1168 43.1011 41.4677V54.3451L48.3331 54.3454Z" fill="#293D7C"/>
<path d="M97.1536 99.6986C97.1536 101.53 95.6554 103.028 93.8244 103.028H37.1753C35.3444 103.028 33.8462 101.53 33.8462 99.6986V57.4109C33.8462 55.58 35.3444 54.0818 37.1753 54.0818H93.8244C95.6554 54.0818 97.1536 55.58 97.1536 57.4109V99.6986Z" fill="#FF9518"/>
<path d="M39.0782 99.6986V57.4109C39.0782 55.58 40.5764 54.0818 42.4074 54.0818H37.1753C35.3444 54.0818 33.8462 55.58 33.8462 57.4109V99.6983C33.8462 101.529 35.3444 103.027 37.1753 103.027H42.4074C40.5764 103.028 39.0782 101.53 39.0782 99.6986Z" fill="#EF8318"/>
<path d="M71.8255 69.1704C71.8255 65.6771 68.9934 62.8452 65.5 62.8452C62.0069 62.8452 59.1748 65.6773 59.1748 69.1704C59.1748 71.973 60.9981 74.3482 63.5225 75.1787V85.4833C63.5225 86.5754 64.4076 87.4608 65.5 87.4608C66.5924 87.4608 67.4776 86.5754 67.4776 85.4833V75.1787C70.002 74.3484 71.8255 71.973 71.8255 69.1704Z" fill="#DB722C"/>
<path d="M33.8462 94.1389V99.6984C33.8462 101.529 35.3444 103.028 37.1753 103.028H93.8244C95.6554 103.028 97.1536 101.529 97.1536 99.6984V94.1389H33.8462Z" fill="#DB722C"/>
</svg>
