<svg width="127" height="127" viewBox="0 0 127 127" fill="none" xmlns="http://www.w3.org/2000/svg">
<rect width="127" height="127" fill="#E5E5E5"/>
<rect x="-1098" y="-1375" width="1980" height="7419" fill="white"/>
<rect x="-1101" y="-196" width="1980" height="914" fill="white"/>
<path d="M63.5 126.781C98.4493 126.781 126.781 98.4493 126.781 63.5C126.781 28.5507 98.4493 0.21875 63.5 0.21875C28.5507 0.21875 0.21875 28.5507 0.21875 63.5C0.21875 98.4493 28.5507 126.781 63.5 126.781Z" fill="#382B73"/>
<path d="M63.5 117.553C93.3525 117.553 117.553 93.3525 117.553 63.5C117.553 33.6475 93.3525 9.44727 63.5 9.44727C33.6475 9.44727 9.44727 33.6475 9.44727 63.5C9.44727 93.3525 33.6475 117.553 63.5 117.553Z" fill="#473080"/>
<path d="M77.8327 73.3481C75.1322 73.3481 72.5846 74.0005 70.3376 75.1559V38.0119C70.3376 35.9974 68.7044 34.3643 66.6899 34.3643H40.1371C38.1227 34.3643 36.4895 35.9974 36.4895 38.0119V96.3714C36.4895 98.3859 38.1227 100.019 40.1371 100.019H65.023C68.031 103.77 72.6516 106.171 77.8332 106.171C86.8972 106.171 94.2447 98.8236 94.2447 89.7596C94.2447 80.6956 86.8967 73.3481 77.8327 73.3481Z" fill="#382B73"/>
<path d="M66.6903 96.3271H40.1364C38.122 96.3271 36.4888 94.694 36.4888 92.6795V34.3205C36.4888 32.306 38.122 30.6729 40.1364 30.6729H66.6897C68.7042 30.6729 70.3374 32.306 70.3374 34.3205V92.68C70.3379 94.694 68.7047 96.3271 66.6903 96.3271Z" fill="#EF5A9D"/>
<path d="M66.6905 84.4941H40.1371C38.1227 84.4941 36.4895 82.8609 36.4895 80.8464V92.6795C36.4895 94.694 38.1227 96.3271 40.1371 96.3271H66.6905C68.7049 96.3271 70.3381 94.694 70.3381 92.6795V80.8464C70.3381 82.8609 68.7049 84.4941 66.6905 84.4941Z" fill="#E43D91"/>
<path d="M53.2161 40.906H42.8623C42.0454 40.906 41.3831 40.2437 41.3831 39.4268C41.3831 38.61 42.0454 37.9476 42.8623 37.9476H53.2161C54.033 37.9476 54.6953 38.61 54.6953 39.4268C54.6953 40.2437 54.033 40.906 53.2161 40.906Z" fill="white"/>
<path d="M63.965 40.906C63.1482 40.906 62.4858 40.2437 62.4858 39.4268C62.4858 38.61 63.1482 37.9476 63.965 37.9476C64.7819 37.9476 65.4442 38.61 65.4442 39.4268C65.4437 40.2437 64.7819 40.906 63.965 40.906Z" fill="white"/>
<path d="M53.2161 56.7453H42.8623C42.0454 56.7453 41.3831 56.0829 41.3831 55.2661C41.3831 54.4492 42.0454 53.7869 42.8623 53.7869H53.2161C54.033 53.7869 54.6953 54.4492 54.6953 55.2661C54.6953 56.0829 54.033 56.7453 53.2161 56.7453Z" fill="white"/>
<path d="M63.965 56.7453C63.1482 56.7453 62.4858 56.0829 62.4858 55.2661C62.4858 54.4492 63.1482 53.7869 63.965 53.7869C64.7819 53.7869 65.4442 54.4492 65.4442 55.2661C65.4437 56.0829 64.7819 56.7453 63.965 56.7453Z" fill="white"/>
<path d="M36.4895 46.3909H70.3381V49.3493H36.4895V46.3909Z" fill="#E43D91"/>
<path d="M36.4895 61.1829H70.3381V64.1413H36.4895V61.1829Z" fill="#E43D91"/>
<path d="M89.4171 97.6702C95.8252 91.2621 95.8252 80.8725 89.4171 74.4644C83.009 68.0562 72.6194 68.0562 66.2113 74.4644C59.8032 80.8725 59.8032 91.2621 66.2113 97.6702C72.6194 104.078 83.009 104.078 89.4171 97.6702Z" fill="#FEDE3A"/>
<path d="M88.476 85.5835C88.4745 85.5661 88.4724 85.5493 88.4697 85.5324C88.4586 85.4591 88.4402 85.3874 88.4138 85.3199C88.4133 85.3183 88.4128 85.3172 88.4122 85.3157C88.4117 85.3146 88.4112 85.3136 88.4107 85.3125C88.2968 85.0256 88.0521 84.801 87.7399 84.7203L85.3768 84.1086L86.3066 82.5292C86.3951 82.3784 86.4389 82.2112 86.4415 82.0451C86.4421 82.0366 86.4415 82.0287 86.4415 82.0203V80.8274C86.4415 80.8222 86.4415 80.8164 86.4415 80.8111C86.4526 80.598 86.3941 80.3839 86.2712 80.2036C86.2707 80.2031 86.2702 80.202 86.2696 80.2015C86.2638 80.1925 86.2575 80.1841 86.2512 80.1751C86.247 80.1693 86.2427 80.164 86.2385 80.1582C86.2364 80.1551 86.2338 80.1524 86.2317 80.1493C86.2079 80.1187 86.1821 80.0886 86.1536 80.0607L84.569 78.476C84.3696 78.2777 84.1028 78.1786 83.8365 78.1876C83.6756 78.1928 83.5143 78.2377 83.3682 78.3236L80.886 79.7849C80.8016 79.748 80.7172 79.7126 80.6313 79.6789L79.9093 76.8903C79.8302 76.5844 79.6124 76.3434 79.334 76.2269C79.2581 76.1953 79.1774 76.1726 79.0941 76.1604C79.0798 76.1583 79.0656 76.1568 79.0508 76.1552C79.0181 76.152 78.9854 76.1499 78.9527 76.1499H76.7115C76.6799 76.1499 76.6488 76.1515 76.6182 76.1546C76.6008 76.1562 76.5839 76.1583 76.567 76.161C76.4837 76.1731 76.403 76.1963 76.3271 76.2285C76.0502 76.3455 75.8335 76.586 75.7549 76.8908L75.033 79.6794C74.947 79.7132 74.8627 79.749 74.7783 79.7854L72.2961 78.3241C72.15 78.2382 71.9892 78.1934 71.8283 78.1881C71.5615 78.1791 71.2946 78.2783 71.0953 78.4765L69.5106 80.0612C69.4827 80.0897 69.4569 80.1192 69.4326 80.1498C69.4305 80.153 69.4278 80.1556 69.4257 80.1588C69.4215 80.164 69.4173 80.1698 69.4131 80.1756C69.4068 80.1841 69.4004 80.193 69.3946 80.202C69.3941 80.2025 69.3936 80.2036 69.393 80.2041C69.2702 80.3845 69.2116 80.5986 69.2227 80.8116V80.8274V82.0456C69.2254 82.2117 69.2691 82.3789 69.3582 82.5297L70.2879 84.1091L67.9249 84.7208C67.6597 84.7894 67.4435 84.9623 67.3148 85.188C67.3074 85.2012 67.3 85.2139 67.2937 85.2276C67.2868 85.2408 67.2805 85.254 67.2747 85.2671C67.2367 85.3505 67.2098 85.4401 67.1961 85.5335C67.1935 85.5503 67.1914 85.5677 67.1898 85.5846C67.1866 85.6152 67.1851 85.6463 67.1851 85.6779V89.1869C67.1851 89.6372 67.4893 90.0306 67.9254 90.1435L70.2879 90.7552L69.3582 92.3346C69.2575 92.506 69.2132 92.6979 69.2227 92.8862V92.8936V94.0617C69.2111 94.3311 69.3097 94.6017 69.5106 94.8026L71.0953 96.3872C71.4138 96.7058 71.9074 96.7685 72.2955 96.5402L74.7788 95.0784C74.8621 95.1148 74.947 95.149 75.0319 95.1828L75.7544 97.9735C75.8673 98.4096 76.2606 98.7139 76.711 98.7139H78.9522C79.4026 98.7139 79.796 98.4096 79.9088 97.9735L80.6313 95.1828C80.7162 95.1496 80.8011 95.1148 80.8844 95.0784L83.3677 96.5402C83.7558 96.7685 84.2494 96.7058 84.5679 96.3872L86.1526 94.8026C86.3535 94.6017 86.4521 94.3311 86.4405 94.0617V92.8936C86.4405 92.891 86.4405 92.8888 86.4405 92.8862C86.45 92.6979 86.4062 92.506 86.305 92.3346L85.3747 90.7552L87.7372 90.1435C88.1733 90.0306 88.4782 89.6372 88.4782 89.1869V85.6779C88.4808 85.6458 88.4787 85.6147 88.476 85.5835ZM74.319 86.798C74.319 84.8574 75.892 83.2838 77.8332 83.2838C79.7738 83.2838 81.3474 84.8574 81.3474 86.798C81.3474 88.7386 79.7738 90.3122 77.8332 90.3122C75.892 90.3117 74.319 88.7386 74.319 86.798Z" fill="#E7AD27"/>
<path d="M86.4426 79.4633C86.4432 79.4554 86.4421 79.448 86.4426 79.4401C86.4432 79.4274 86.4421 79.4148 86.4421 79.4021C86.4416 79.381 86.4411 79.3604 86.4395 79.3393C86.4258 79.1036 86.3308 78.8737 86.1547 78.697L84.57 77.1124C84.2505 76.7944 83.7574 76.7311 83.3698 76.9605L80.8865 78.4218C80.8027 78.3849 80.7178 78.3506 80.6329 78.3179L79.9104 75.5266C79.7976 75.0905 79.4031 74.7863 78.9533 74.7863H76.7121C76.2623 74.7863 75.8678 75.0905 75.755 75.5266L75.0325 78.3179C74.9476 78.3511 74.8627 78.3854 74.7788 78.4218L72.2956 76.9605C71.9075 76.7311 71.4144 76.7944 71.0954 77.1124L69.5107 78.697C69.3345 78.8737 69.2396 79.1036 69.2259 79.3393C69.2243 79.3604 69.2233 79.381 69.2233 79.4021C69.2233 79.4148 69.2222 79.4274 69.2228 79.4401C69.2228 79.448 69.2222 79.4554 69.2228 79.4633V80.6814C69.2254 80.8475 69.2692 81.0147 69.3583 81.1655L70.288 82.7449L67.925 83.3567C67.4889 83.4695 67.1846 83.8639 67.1846 84.3138V87.8227C67.1846 88.2731 67.4894 88.6665 67.925 88.7793L70.288 89.391L69.3583 90.971C69.266 91.1265 69.2233 91.299 69.2233 91.4709C69.2233 91.4741 69.2228 91.4767 69.2228 91.4799C69.2222 91.4883 69.2228 91.4962 69.2228 91.5046C69.2222 91.5131 69.2228 91.521 69.2228 91.5294V92.6975C69.2112 92.967 69.3098 93.2375 69.5107 93.4384L71.0954 95.0231C71.4139 95.3416 71.9075 95.4043 72.2956 95.176L74.7788 93.7142C74.8622 93.7506 74.9471 93.7849 75.032 93.8186L75.7544 96.6093C75.8673 97.0454 76.2607 97.3502 76.711 97.3502H78.9522C79.4026 97.3502 79.796 97.046 79.9088 96.6093L80.6313 93.8186C80.7162 93.7849 80.8011 93.7506 80.8844 93.7142L83.3677 95.176C83.7558 95.4043 84.2494 95.3416 84.5679 95.0231L86.1526 93.4384C86.3535 93.2375 86.4521 92.9675 86.4405 92.6975V91.5294C86.4405 91.521 86.441 91.5131 86.4405 91.5046C86.4405 91.4962 86.441 91.4883 86.4405 91.4799C86.4405 91.4767 86.44 91.4735 86.44 91.4709C86.44 91.2995 86.3973 91.1271 86.305 90.971L85.3753 89.391L87.7383 88.7793C88.1744 88.6665 88.4792 88.2731 88.4792 87.8227V84.3138C88.4792 83.8639 88.175 83.4695 87.7388 83.3567L85.3758 82.7449L86.3055 81.1655C86.3946 81.0147 86.4379 80.8475 86.4411 80.6814C86.4416 80.673 86.4411 80.6651 86.4411 80.6566L86.4426 79.4633ZM77.8327 88.9628C75.8868 88.9628 74.3042 87.3798 74.3042 85.4344C74.3042 83.4885 75.8873 81.9059 77.8327 81.9059C79.7786 81.9059 81.3611 83.489 81.3611 85.4344C81.3617 87.3798 79.7786 88.9628 77.8327 88.9628Z" fill="#A72973"/>
<path d="M77.8326 77.7863C73.6091 77.7863 70.1851 81.2103 70.1851 85.4338C70.1851 89.6578 73.6091 93.0813 77.8326 93.0813C82.0561 93.0813 85.4801 89.6573 85.4801 85.4338C85.4807 81.2103 82.0566 77.7863 77.8326 77.7863ZM77.8326 88.9485C75.892 88.9485 74.3184 87.3749 74.3184 85.4343C74.3184 83.4937 75.8914 81.9201 77.8326 81.9201C79.7732 81.9201 81.3468 83.4937 81.3468 85.4343C81.3468 87.3749 79.7738 88.9485 77.8326 88.9485Z" fill="#EF5A9D"/>
<path d="M79.7131 79.6974H75.9527C75.3061 79.6974 74.8336 79.0872 74.9961 78.4613L75.7554 75.5271C75.8683 75.091 76.2617 74.7867 76.712 74.7867H78.9532C79.4036 74.7867 79.797 75.0916 79.9098 75.5271L80.6692 78.4613C80.8316 79.0872 80.3597 79.6974 79.7131 79.6974Z" fill="#EF5A9D"/>
<path d="M75.9526 91.1713H79.713C80.3596 91.1713 80.8321 91.7814 80.6697 92.4074L79.9103 95.3415C79.7974 95.7776 79.404 96.0824 78.9537 96.0824H76.7125C76.2621 96.0824 75.8687 95.7776 75.7559 95.3415L74.9965 92.4074C74.8335 91.7814 75.306 91.1713 75.9526 91.1713Z" fill="#EF5A9D"/>
<path d="M83.5696 87.3144V83.5539C83.5696 82.9073 84.1797 82.4348 84.8057 82.5973L87.7398 83.3566C88.1759 83.4695 88.4807 83.8629 88.4807 84.3132V86.5545C88.4807 87.0048 88.1759 87.3982 87.7398 87.5111L84.8057 88.2704C84.1797 88.4334 83.5696 87.9609 83.5696 87.3144Z" fill="#EF5A9D"/>
<path d="M72.0962 83.5544V87.3149C72.0962 87.9614 71.486 88.4339 70.8601 88.2715L67.9259 87.5121C67.4898 87.3992 67.1855 87.0058 67.1855 86.5555V84.3143C67.1855 83.8639 67.4904 83.4705 67.9259 83.3577L70.8601 82.5983C71.4855 82.4354 72.0962 82.9079 72.0962 83.5544Z" fill="#EF5A9D"/>
<path d="M83.2188 82.7069L80.5599 80.048C80.1027 79.5908 80.2003 78.8251 80.7572 78.4976L83.3691 76.9599C83.7572 76.7316 84.2508 76.7943 84.5693 77.1128L86.154 78.6975C86.4725 79.016 86.5352 79.5096 86.3069 79.8977L84.7692 82.5097C84.4412 83.0666 83.676 83.1641 83.2188 82.7069Z" fill="#EF5A9D"/>
<path d="M72.4468 88.1612L75.1057 90.8201C75.5629 91.2773 75.4654 92.043 74.9085 92.371L72.2965 93.9087C71.9084 94.1371 71.4148 94.0743 71.0963 93.7558L69.5116 92.1711C69.1931 91.8526 69.1304 91.359 69.3587 90.9709L70.8965 88.359C71.2239 87.8016 71.9896 87.704 72.4468 88.1612Z" fill="#EF5A9D"/>
<path d="M80.5599 90.8201L83.2188 88.1612C83.676 87.704 84.4412 87.8016 84.7692 88.3585L86.3069 90.9704C86.5352 91.3585 86.4725 91.8521 86.154 92.1706L84.5693 93.7553C84.2508 94.0738 83.7572 94.1366 83.3691 93.9082L80.7572 92.3705C80.2003 92.043 80.1027 91.2773 80.5599 90.8201Z" fill="#EF5A9D"/>
<path d="M75.1057 80.048L72.4468 82.7069C71.9896 83.1641 71.2239 83.0666 70.8965 82.5097L69.3587 79.8977C69.1304 79.5096 69.1931 79.016 69.5116 78.6975L71.0963 77.1128C71.4148 76.7943 71.9084 76.7316 72.2965 76.9599L74.9085 78.4976C75.4654 78.8257 75.5629 79.5914 75.1057 80.048Z" fill="#EF5A9D"/>
<path d="M77.8326 91.8357C74.3031 91.8357 71.4312 88.9643 71.4312 85.4343C71.4312 81.9047 74.3025 79.0328 77.8326 79.0328C81.3621 79.0328 84.234 81.9042 84.234 85.4343C84.234 88.9638 81.3626 91.8357 77.8326 91.8357ZM77.8326 80.0343C74.8552 80.0343 72.4326 82.4563 72.4326 85.4343C72.4326 88.4122 74.8552 90.8343 77.8326 90.8343C80.81 90.8343 83.2326 88.4116 83.2326 85.4343C83.2326 82.4569 80.8105 80.0343 77.8326 80.0343Z" fill="#F06EA9"/>
<path d="M77.8326 90.8343C74.8552 90.8343 72.4326 88.4117 72.4326 85.4343C72.4326 82.4569 74.8547 80.0343 77.8326 80.0343C80.81 80.0343 83.2326 82.4564 83.2326 85.4343C83.2326 88.4122 80.8105 90.8343 77.8326 90.8343ZM77.8326 81.9053C75.8867 81.9053 74.3042 83.4884 74.3042 85.4338C74.3042 87.3797 75.8873 88.9622 77.8326 88.9622C79.7785 88.9622 81.3611 87.3791 81.3611 85.4338C81.3616 83.4884 79.7785 81.9053 77.8326 81.9053Z" fill="#E43D91"/>
</svg>
